<svg xmlns="http://www.w3.org/2000/svg" viewBox="0 0 512 512" id="code">
  <path d="M501.54,472.12H10.46V39.88H501.54ZM30.92,451.66H481.08V60.34H30.92Z"></path>
  <rect width="25.57" height="20.46" x="344.67" y="89.5"></rect>
  <rect width="25.57" height="20.46" x="390.49" y="89.5"></rect>
  <rect width="25.57" height="20.46" x="436.3" y="89.5"></rect>
  <polygon points="94.91 166.63 20.69 166.63 20.69 146.16 86.44 146.16 109.45 123.15 222.34 123.15 242.89 143.7 491.31 143.7 491.31 164.16 234.41 164.16 213.86 143.61 117.93 143.61 94.91 166.63"></polygon>
  <polygon points="346.57 381.44 332.11 366.97 389.63 309.45 332.11 251.92 346.57 237.46 418.57 309.45 346.57 381.44"></polygon>
  <polygon points="165.43 381.44 93.43 309.45 165.43 237.46 179.89 251.92 122.37 309.45 179.89 366.97 165.43 381.44"></polygon>
  <rect width="207.98" height="20.46" x="137.71" y="299.21" transform="rotate(-65.64 241.707 309.45)"></rect>
  <rect width="19.42" height="20.46" x="255.46" y="342.15"></rect>
  <rect width="19.42" height="20.46" x="293.64" y="342.15"></rect>
</svg>
