<svg xmlns="http://www.w3.org/2000/svg" enable-background="new 0 0 40 40" viewBox="0 0 40 40" id="volkswagen">
  <switch>
    <g>
      <path fill="#022251" d="M20,36c-8.8,0-16-7.2-16-16S11.2,4,20,4s16,7.2,16,16S28.8,36,20,36z M6.9,15
			C6.3,16.6,6,18.3,6,20c0,7.7,6.3,14,14,14s14-6.3,14-14c0-1.7-0.3-3.4-0.9-5l-7.7,15.4c-0.2,0.3-0.5,0.6-0.9,0.6
			c-0.4,0-0.7-0.2-0.9-0.6L20.3,23h-0.7l-3.2,7.4c-0.2,0.4-0.5,0.6-0.9,0.6c-0.4,0-0.7-0.2-0.9-0.6L6.9,15z M8,12.8l7.4,14.9l2.6-6
			c0.2-0.4,0.5-0.6,0.9-0.6h2c0.4,0,0.8,0.2,0.9,0.6l2.6,6L32,12.8c-1.3-2.2-3.2-4-5.5-5.2l-4.6,10.8C21.8,18.8,21.4,19,21,19h-2
			c-0.4,0-0.8-0.2-0.9-0.6L13.5,7.6C11.2,8.8,9.3,10.6,8,12.8z M19.7,17h0.7l4.4-10.2c-2.9-1.1-6.5-1.1-9.4,0L19.7,17z"></path>
    </g>
  </switch>
</svg>
